<?xml version="1.0" encoding="UTF-8" standalone="no"?>
<!-- Created with Inkscape (http://www.inkscape.org/) -->

<svg
   version="1.1"
   id="svg824"
   width="512"
   height="512"
   viewBox="0 0 512 512"
   sodipodi:docname="no-sound.svg"
   inkscape:version="1.1.1 (3bf5ae0d25, 2021-09-20)"
   xmlns:inkscape="http://www.inkscape.org/namespaces/inkscape"
   xmlns:sodipodi="http://sodipodi.sourceforge.net/DTD/sodipodi-0.dtd"
   xmlns="http://www.w3.org/2000/svg"
   xmlns:svg="http://www.w3.org/2000/svg">
  <sodipodi:namedview
     id="namedview6"
     pagecolor="#ffffff"
     bordercolor="#666666"
     borderopacity="1.0"
     inkscape:pageshadow="2"
     inkscape:pageopacity="0.0"
     inkscape:pagecheckerboard="0"
     showgrid="false"
     inkscape:zoom="1.5664062"
     inkscape:cx="256.3192"
     inkscape:cy="256.3192"
     inkscape:window-width="1920"
     inkscape:window-height="991"
     inkscape:window-x="-9"
     inkscape:window-y="-9"
     inkscape:window-maximized="1"
     inkscape:current-layer="svg824" />
  <defs
     id="defs828" />
  <g
     id="g830"
     style="fill:#ffffff">
    <path
       style="fill:#ffffff;stroke-width:0.981368"
       d="m 248.73892,451.47336 c -1.61586,-0.57531 -4.25999,-1.97278 -5.87585,-3.10547 -6.07587,-4.25914 -99.02487,-75.73772 -101.60324,-78.13378 l -2.6931,-2.50266 V 255.90598 144.0805 l 3.22485,-2.80631 c 7.16582,-6.23584 100.85292,-77.686516 104.25993,-79.514079 3.15336,-1.691494 5.92409,-2.010933 19.78992,-2.281642 10.90783,-0.212963 17.56013,0.08752 20.56547,0.92899 5.76994,1.615495 13.8125,9.524192 15.49268,15.23481 1.7296,5.878607 1.7296,354.813041 0,360.691641 -1.58933,5.40184 -9.70207,13.54875 -15.08125,15.14477 -4.99262,1.48134 -33.91523,1.47728 -38.07941,-0.005 z M 37.800454,348.84134 C 22.37152,344.67479 10.937577,333.05423 6.8820044,317.41826 4.6813986,308.93398 4.6465891,203.17641 6.8416177,194.71364 11.060714,178.44721 22.178734,167.28237 38.376942,163.0455 c 4.380698,-1.14584 12.175743,-1.46696 35.609427,-1.46696 27.820791,0 30.118811,0.1307 31.621761,1.79845 1.48354,1.64619 1.62075,9.50091 1.62075,92.78197 0,86.89443 -0.0805,91.0567 -1.7909,92.61111 -1.58859,1.44371 -5.21168,1.62026 -32.072345,1.56285 -23.215262,-0.0497 -31.514411,-0.39768 -35.565181,-1.49158 z m 312.296886,-7.59686 c -1.88517,-0.5967 -5.64596,-3.31743 -8.3573,-6.04606 -6.90297,-6.94697 -8.8092,-14.23202 -6.15753,-23.53228 0.9575,-3.35823 5.49675,-8.44571 26.64495,-29.86294 l 25.49085,-25.81511 -25.49085,-25.81511 C 335.4189,203.0234 334.4284,201.70062 334.4284,193.04839 c 0,-12.18538 11.36913,-23.60238 23.5034,-23.60238 8.61594,0 9.93318,0.99467 36.96889,27.91613 l 25.70685,25.59821 25.70684,-25.59821 c 27.03572,-26.92146 28.35295,-27.91613 36.96889,-27.91613 12.13428,0 23.5034,11.417 23.5034,23.60238 0,8.65223 -0.9905,9.97501 -27.79906,37.12459 l -25.49085,25.81511 25.49085,25.81511 c 26.80856,27.14958 27.79906,28.47237 27.79906,37.12459 0,12.18538 -11.36912,23.60239 -23.5034,23.60239 -8.61594,0 -9.93317,-0.99467 -36.96889,-27.91614 l -25.70684,-25.5982 -25.70685,25.5982 c -21.3274,21.23727 -26.39354,25.79564 -29.7377,26.75717 -4.84447,1.39291 -10.41261,1.34607 -15.06565,-0.12673 z"
       id="path986" />
  </g>
</svg>
