<?xml version="1.0" encoding="UTF-8" standalone="no"?>
<!-- Created with Inkscape (http://www.inkscape.org/) -->

<svg
   version="1.1"
   id="svg824"
   width="512"
   height="512"
   viewBox="0 0 512 512"
   sodipodi:docname="sound.svg"
   inkscape:version="1.1.1 (3bf5ae0d25, 2021-09-20)"
   xmlns:inkscape="http://www.inkscape.org/namespaces/inkscape"
   xmlns:sodipodi="http://sodipodi.sourceforge.net/DTD/sodipodi-0.dtd"
   xmlns="http://www.w3.org/2000/svg"
   xmlns:svg="http://www.w3.org/2000/svg">
  <defs
     id="defs828" />
  <sodipodi:namedview
     id="namedview826"
     pagecolor="#ffffff"
     bordercolor="#666666"
     borderopacity="1.0"
     inkscape:pageshadow="2"
     inkscape:pageopacity="0.0"
     inkscape:pagecheckerboard="0"
     showgrid="false"
     inkscape:zoom="1.5097656"
     inkscape:cx="163.93273"
     inkscape:cy="257.98706"
     inkscape:window-width="1920"
     inkscape:window-height="991"
     inkscape:window-x="-9"
     inkscape:window-y="-9"
     inkscape:window-maximized="1"
     inkscape:current-layer="g830" />
  <g
     inkscape:groupmode="layer"
     inkscape:label="Image"
     id="g830">
    <path
       style="fill:#ffffff;stroke-width:0.987551"
       d="m 248.77213,452.13195 c -1.63079,-0.57725 -4.29935,-1.97942 -5.93014,-3.11594 -6.13201,-4.27349 -99.93978,-75.9929 -102.54197,-78.39703 l -2.71798,-2.51109 V 255.90565 143.70341 l 3.25464,-2.81577 c 7.23203,-6.25685 101.78472,-77.948252 105.22321,-79.781972 3.18249,-1.697184 5.97881,-2.017709 19.97275,-2.289331 11.00861,-0.213679 17.72238,0.08782 20.75548,0.93212 5.82325,1.620938 13.94012,9.556283 15.63582,15.28614 1.74559,5.898414 1.74559,356.008483 0,361.906903 -1.60401,5.42003 -9.7917,13.59439 -15.22059,15.19579 -5.03875,1.48632 -34.22858,1.48226 -38.43122,-0.005 z m 167.42493,-16.54314 c -5.20035,-0.9373 -12.36058,-5.47014 -15.17677,-9.60778 -3.61543,-5.31193 -5.05215,-12.78425 -3.58018,-18.62044 1.43306,-5.68194 3.56433,-8.92184 10.97349,-16.68169 33.55947,-35.14781 53.34931,-85.11117 53.34931,-134.69086 0,-49.57968 -19.78984,-99.54305 -53.34931,-134.69086 -7.40916,-7.75984 -9.54043,-10.99974 -10.97349,-16.68168 -3.58419,-14.210939 7.83965,-28.412615 22.85515,-28.412615 8.28741,0 13.08067,2.580766 21.82574,11.751309 32.20814,33.775146 54.18255,76.746306 62.7169,122.643526 14.39888,77.43633 -9.02981,157.29441 -62.55707,213.2295 -9.78306,10.22314 -16.87557,13.42126 -26.08377,11.76159 z M 351.06061,364.6524 c -10.68231,-3.49196 -17.78402,-12.6777 -17.78402,-23.00282 0,-5.89199 2.80215,-11.9123 8.85826,-19.03162 10.6073,-12.46951 17.55151,-25.98718 21.95363,-42.73511 3.29095,-12.52046 3.26535,-35.3623 -0.0538,-48.00394 -4.4293,-16.86995 -11.57495,-30.57376 -22.67356,-43.48298 -10.62024,-12.35281 -10.85436,-24.40515 -0.67277,-34.63302 3.95786,-3.97585 6.10354,-5.29305 10.23352,-6.2822 10.06107,-2.40968 17.61272,0.4679 26.25804,10.00573 16.58886,18.30141 29.61006,45.22971 34.74773,71.85945 2.72427,14.12055 2.49671,41.35322 -0.46175,55.25779 -2.87547,13.51455 -7.06791,25.99464 -12.43043,37.00299 -8.56154,17.5754 -23.42015,37.00456 -31.41281,41.07546 -4.38018,2.23097 -12.72698,3.22392 -16.56206,1.97027 z M 35.884752,349.15414 C 20.313268,344.97355 8.7736865,333.31384 4.6806425,317.62519 2.4597055,309.11232 2.4245745,202.99843 4.6398825,194.50714 8.8979615,178.1859 20.118701,166.98344 36.466566,162.7323 c 4.421173,-1.14969 12.288238,-1.4719 35.938427,-1.4719 28.077837,0 30.397087,0.13114 31.913927,1.80451 1.49724,1.65173 1.63572,9.53292 1.63572,93.09458 0,87.18719 -0.0813,91.36349 -1.80745,92.92314 -1.60327,1.44857 -5.259828,1.62572 -32.368667,1.56811 -23.429748,-0.0498 -31.805575,-0.39902 -35.893771,-1.4966 z"
       id="path1317" />
  </g>
</svg>
